<svg xmlns="http://www.w3.org/2000/svg" xmlns:xlink="http://www.w3.org/1999/xlink" contentStyleType="text/css" data-diagram-type="DESCRIPTION" height="946px" preserveAspectRatio="none" style="width:738px;height:946px;background:#FFFFFF;" version="1.1" viewBox="0 0 738 946" width="738px" zoomAndPan="magnify"><defs/><g><!--cluster ThermoSelect--><g class="cluster" data-entity="ThermoSelect" data-source-line="14" data-uid="ent0005" id="cluster_ThermoSelect"><rect fill="none" height="933" rx="2.5" ry="2.5" style="stroke:#181818;stroke-width:1;" width="255" x="477" y="7"/><text fill="#000000" font-family="sans-serif" font-size="14" font-weight="bold" lengthAdjust="spacing" textLength="92.5859" x="558.207" y="23.5332">ThermoSelect</text></g><!--entity UC_Register--><g class="entity" data-entity="UC_Register" data-source-line="15" data-uid="ent0006" id="entity_UC_Register"><ellipse cx="604.3045" cy="303.9517" fill="#F1F7F8" rx="61.3045" ry="15.4517" style="stroke:#0C8791;stroke-width:0.5;"/><text fill="#000000" font-family="sans-serif" font-size="14" lengthAdjust="spacing" textLength="82.4551" x="563.077" y="309.2564">&#1056;&#1077;&#1075;&#1080;&#1089;&#1090;&#1088;&#1072;&#1094;&#1080;&#1103;</text></g><!--entity UC_Login--><g class="entity" data-entity="UC_Login" data-source-line="16" data-uid="ent0007" id="entity_UC_Login"><ellipse cx="604.3346" cy="369.9517" fill="#F1F7F8" rx="25.8346" ry="15.4517" style="stroke:#0C8791;stroke-width:0.5;"/><text fill="#000000" font-family="sans-serif" font-size="14" lengthAdjust="spacing" textLength="32.293" x="588.1881" y="375.2564">&#1042;&#1093;&#1086;&#1076;</text></g><!--entity UC_Logout--><g class="entity" data-entity="UC_Logout" data-source-line="17" data-uid="ent0008" id="entity_UC_Logout"><ellipse cx="604.4498" cy="435.9517" fill="#F1F7F8" rx="32.9498" ry="15.4517" style="stroke:#0C8791;stroke-width:0.5;"/><text fill="#000000" font-family="sans-serif" font-size="14" lengthAdjust="spacing" textLength="42.3555" x="583.2721" y="441.2564">&#1042;&#1099;&#1093;&#1086;&#1076;</text></g><!--entity UC_Search--><g class="entity" data-entity="UC_Search" data-source-line="18" data-uid="ent0009" id="entity_UC_Search"><ellipse cx="604.4197" cy="578.0839" fill="#F1F7F8" rx="83.4197" ry="19.0839" style="stroke:#0C8791;stroke-width:0.5;"/><text fill="#000000" font-family="sans-serif" font-size="14" lengthAdjust="spacing" textLength="134.5996" x="537.1199" y="583.3886">&#1055;&#1086;&#1080;&#1089;&#1082; &#1080; &#1092;&#1080;&#1083;&#1100;&#1090;&#1088;&#1072;&#1094;&#1080;&#1103;</text></g><!--entity UC_Export--><g class="entity" data-entity="UC_Export" data-source-line="19" data-uid="ent0010" id="entity_UC_Export"><ellipse cx="604.5882" cy="739.0176" fill="#F1F7F8" rx="73.0882" ry="17.0176" style="stroke:#0C8791;stroke-width:0.5;"/><text fill="#000000" font-family="sans-serif" font-size="14" lengthAdjust="spacing" textLength="109.0742" x="550.0511" y="744.3223">&#1042;&#1099;&#1075;&#1088;&#1091;&#1079;&#1082;&#1072; &#1074; Excel</text></g><!--entity UC_Detail--><g class="entity" data-entity="UC_Detail" data-source-line="20" data-uid="ent0011" id="entity_UC_Detail"><ellipse cx="604.5579" cy="667.8116" fill="#F1F7F8" rx="79.5579" ry="18.3116" style="stroke:#0C8791;stroke-width:0.5;"/><text fill="#000000" font-family="sans-serif" font-size="14" lengthAdjust="spacing" textLength="125.2686" x="541.9236" y="673.1163">&#1055;&#1088;&#1086;&#1089;&#1084;&#1086;&#1090;&#1088; &#1082;&#1072;&#1088;&#1090;&#1086;&#1095;&#1082;&#1080;</text></g><!--entity UC_Compare--><g class="entity" data-entity="UC_Compare" data-source-line="21" data-uid="ent0012" id="entity_UC_Compare"><ellipse cx="604.3026" cy="232.1605" fill="#F1F7F8" rx="96.3026" ry="21.6605" style="stroke:#0C8791;stroke-width:0.5;"/><text fill="#000000" font-family="sans-serif" font-size="14" lengthAdjust="spacing" textLength="164.5273" x="522.0389" y="237.4652">&#1057;&#1088;&#1072;&#1074;&#1085;&#1077;&#1085;&#1080;&#1077; &#1076;&#1086; 4 &#1084;&#1086;&#1076;&#1077;&#1083;&#1077;&#1081;</text></g><!--entity UC_Account--><g class="entity" data-entity="UC_Account" data-source-line="22" data-uid="ent0013" id="entity_UC_Account"><ellipse cx="604.4014" cy="504.7803" fill="#F1F7F8" rx="79.4014" ry="18.2803" style="stroke:#0C8791;stroke-width:0.5;"/><text fill="#000000" font-family="sans-serif" font-size="14" lengthAdjust="spacing" textLength="124.8857" x="541.9585" y="510.085">&#1055;&#1088;&#1086;&#1089;&#1084;&#1086;&#1090;&#1088; &#1072;&#1082;&#1082;&#1072;&#1091;&#1085;&#1090;&#1072;</text></g><!--entity UC_Catalog--><g class="entity" data-entity="UC_Catalog" data-source-line="23" data-uid="ent0014" id="entity_UC_Catalog"><ellipse cx="604.6423" cy="63.8285" fill="#F1F7F8" rx="89.6423" ry="20.3285" style="stroke:#0C8791;stroke-width:0.5;"/><text fill="#000000" font-family="sans-serif" font-size="14" lengthAdjust="spacing" textLength="149.249" x="530.0177" y="69.1331">&#1059;&#1087;&#1088;&#1072;&#1074;&#1083;&#1077;&#1085;&#1080;&#1077; &#1082;&#1072;&#1090;&#1072;&#1083;&#1086;&#1075;&#1086;&#1084;</text></g><!--entity UC_Status--><g class="entity" data-entity="UC_Status" data-source-line="24" data-uid="ent0015" id="entity_UC_Status"><ellipse cx="604.2649" cy="155.853" fill="#F1F7F8" rx="82.2649" ry="18.853" style="stroke:#0C8791;stroke-width:0.5;"/><text fill="#000000" font-family="sans-serif" font-size="14" lengthAdjust="spacing" textLength="131.8311" x="538.3493" y="161.1577">&#1055;&#1091;&#1073;&#1083;&#1080;&#1082;&#1072;&#1094;&#1080;&#1103; &#1080; &#1072;&#1088;&#1093;&#1080;&#1074;</text></g><!--entity UC_Manufacturers--><g class="entity" data-entity="UC_Manufacturers" data-source-line="25" data-uid="ent0016" id="entity_UC_Manufacturers"><ellipse cx="604.6513" cy="816.2303" fill="#F1F7F8" rx="111.6513" ry="24.7303" style="stroke:#0C8791;stroke-width:0.5;"/><text fill="#000000" font-family="sans-serif" font-size="14" lengthAdjust="spacing" textLength="198.666" x="505.3183" y="821.535">&#1059;&#1087;&#1088;&#1072;&#1074;&#1083;&#1077;&#1085;&#1080;&#1077; &#1087;&#1088;&#1086;&#1080;&#1079;&#1074;&#1086;&#1076;&#1080;&#1090;&#1077;&#1083;&#1103;&#1084;&#1080;</text></g><!--entity UC_Users--><g class="entity" data-entity="UC_Users" data-source-line="26" data-uid="ent0017" id="entity_UC_Users"><ellipse cx="604.3495" cy="899.9699" fill="#F1F7F8" rx="107.8495" ry="23.9699" style="stroke:#0C8791;stroke-width:0.5;"/><text fill="#000000" font-family="sans-serif" font-size="14" lengthAdjust="spacing" textLength="190.3193" x="509.1899" y="905.2746">&#1059;&#1087;&#1088;&#1072;&#1074;&#1083;&#1077;&#1085;&#1080;&#1077; &#1087;&#1086;&#1083;&#1100;&#1079;&#1086;&#1074;&#1072;&#1090;&#1077;&#1083;&#1103;&#1084;&#1080;</text></g><!--entity Guest--><g class="entity" data-entity="Guest" data-source-line="10" data-uid="ent0002" id="entity_Guest"><ellipse cx="348.5" cy="320" fill="#F1F1F1" rx="16" ry="16" style="stroke:#181818;stroke-width:0.5;"/><path d="M348.5,340 C352.5,340 355.5,340 359.5,336 C367.5,336 375.5,344 375.5,352 L375.5,356 C375.5,360 371.5,364 367.5,364 L329.5,364 C325.5,364 321.5,360 321.5,356 L321.5,352 C321.5,344 329.5,336 337.5,336 C341.5,340 344.5,340 348.5,340" fill="#F1F1F1" style="stroke:#181818;stroke-width:0.5;"/><text fill="#000000" font-family="sans-serif" font-size="14" lengthAdjust="spacing" textLength="36.0732" x="330.4634" y="379.0332">&#1043;&#1086;&#1089;&#1090;&#1100;</text></g><!--entity User--><g class="entity" data-entity="User" data-source-line="11" data-uid="ent0003" id="entity_User"><ellipse cx="214.2007" cy="484" fill="#F1F1F1" rx="16" ry="16" style="stroke:#181818;stroke-width:0.5;"/><path d="M214.2007,504 C218.2007,504 221.2007,504 225.2007,500 C233.2007,500 241.2007,508 241.2007,516 L241.2007,520 C241.2007,524 237.2007,528 233.2007,528 L195.2007,528 C191.2007,528 187.2007,524 187.2007,520 L187.2007,516 C187.2007,508 195.2007,500 203.2007,500 C207.2007,504 210.2007,504 214.2007,504" fill="#F1F1F1" style="stroke:#181818;stroke-width:0.5;"/><text fill="#000000" font-family="sans-serif" font-size="14" lengthAdjust="spacing" textLength="92.4014" x="168" y="543.0332">&#1055;&#1086;&#1083;&#1100;&#1079;&#1086;&#1074;&#1072;&#1090;&#1077;&#1083;&#1100;</text></g><!--entity Admin--><g class="entity" data-entity="Admin" data-source-line="12" data-uid="ent0004" id="entity_Admin"><ellipse cx="56.7363" cy="484" fill="#F1F1F1" rx="16" ry="16" style="stroke:#181818;stroke-width:0.5;"/><path d="M56.7363,504 C60.7363,504 63.7363,504 67.7363,500 C75.7363,500 83.7363,508 83.7363,516 L83.7363,520 C83.7363,524 79.7363,528 75.7363,528 L37.7363,528 C33.7363,528 29.7363,524 29.7363,520 L29.7363,516 C29.7363,508 37.7363,500 45.7363,500 C49.7363,504 52.7363,504 56.7363,504" fill="#F1F1F1" style="stroke:#181818;stroke-width:0.5;"/><text fill="#000000" font-family="sans-serif" font-size="14" lengthAdjust="spacing" textLength="101.4727" x="6" y="543.0332">&#1040;&#1076;&#1084;&#1080;&#1085;&#1080;&#1089;&#1090;&#1088;&#1072;&#1090;&#1086;&#1088;</text></g><!--link Guest to UC_Register--><g class="link" data-entity-1="Guest" data-entity-2="UC_Register" data-source-line="29" data-uid="lnk18" id="link_Guest_UC_Register"><path d="M376.18,337.51 C385.58,335.66 396.24,333.64 406,332 C454.32,323.88 503.6219,316.9671 543.3719,311.7071" fill="none" id="Guest-to-UC_Register" style="stroke:#526474;stroke-width:1;"/><polygon fill="#526474" points="549.32,310.92,539.873,308.1352,544.3632,311.5759,540.9225,316.0661,549.32,310.92" style="stroke:#526474;stroke-width:1;"/></g><!--link Guest to UC_Login--><g class="link" data-entity-1="Guest" data-entity-2="UC_Login" data-source-line="30" data-uid="lnk19" id="link_Guest_UC_Login"><path d="M376.2,345.84 C425.62,351.09 524.7036,361.6259 572.6936,366.7259" fill="none" id="Guest-to-UC_Login" style="stroke:#526474;stroke-width:1;"/><polygon fill="#526474" points="578.66,367.36,570.1331,362.4313,573.688,366.8316,569.2877,370.3865,578.66,367.36" style="stroke:#526474;stroke-width:1;"/></g><!--link User to Guest--><g class="link" data-entity-1="User" data-entity-2="Guest" data-source-line="31" data-uid="lnk20" id="link_User_Guest"><path d="M244.84,467.47 C258.41,449.73 274.81,428.65 290,410 C299.88,397.88 299.2445,398.4025 309.0645,387.0325" fill="none" id="User-to-Guest" style="stroke:#526474;stroke-width:1;"/><polygon fill="none" points="320.83,373.41,304.5237,383.1107,313.6054,390.9544,320.83,373.41" style="stroke:#526474;stroke-width:1;"/></g><!--link Admin to User--><g class="link" data-entity-1="Admin" data-entity-2="User" data-source-line="32" data-uid="lnk21" id="link_Admin_User"><path d="M107.13,507 C126.59,507 130.78,507 149.79,507" fill="none" id="Admin-to-User" style="stroke:#526474;stroke-width:1;"/><polygon fill="none" points="167.79,507,149.79,501,149.79,513,167.79,507" style="stroke:#526474;stroke-width:1;"/></g><!--link User to UC_Logout--><g class="link" data-entity-1="User" data-entity-2="UC_Logout" data-source-line="33" data-uid="lnk22" id="link_User_UC_Logout"><path d="M260.3,490.17 C270.02,486.88 280.29,483.63 290,481 C390.57,453.74 508.0458,442.615 565.4058,438.445" fill="none" id="User-to-UC_Logout" style="stroke:#526474;stroke-width:1;"/><polygon fill="#526474" points="571.39,438.01,562.1237,434.6731,566.4032,438.3725,562.7037,442.652,571.39,438.01" style="stroke:#526474;stroke-width:1;"/></g><!--link User to UC_Search--><g class="link" data-entity-1="User" data-entity-2="UC_Search" data-source-line="34" data-uid="lnk23" id="link_User_UC_Search"><path d="M260.33,515.28 C329.08,527.85 454.1479,550.7008 532.8979,565.1008" fill="none" id="User-to-UC_Search" style="stroke:#526474;stroke-width:1;"/><polygon fill="#526474" points="538.8,566.18,530.6663,560.6264,533.8816,565.2806,529.2273,568.4959,538.8,566.18" style="stroke:#526474;stroke-width:1;"/></g><!--link User to UC_Export--><g class="link" data-entity-1="User" data-entity-2="UC_Export" data-source-line="35" data-uid="lnk24" id="link_User_UC_Export"><path d="M245.58,546.63 C265.38,570.62 292.68,600.76 321,623 C379.98,669.3 399.3,676.35 469,704 C494.46,714.1 517.9388,720.7488 542.6888,726.5588" fill="none" id="User-to-UC_Export" style="stroke:#526474;stroke-width:1;"/><polygon fill="#526474" points="548.53,727.93,540.6823,721.979,543.6623,726.7873,538.854,729.7673,548.53,727.93" style="stroke:#526474;stroke-width:1;"/></g><!--link User to UC_Detail--><g class="link" data-entity-1="User" data-entity-2="UC_Detail" data-source-line="36" data-uid="lnk25" id="link_User_UC_Detail"><path d="M260.2,542.8 C297.31,570.43 352.32,607.46 406,629 C446.06,645.08 487.4947,653.8416 525.8047,659.5116" fill="none" id="User-to-UC_Detail" style="stroke:#526474;stroke-width:1;"/><polygon fill="#526474" points="531.74,660.39,523.4226,655.1154,526.7939,659.658,522.2513,663.0292,531.74,660.39" style="stroke:#526474;stroke-width:1;"/></g><!--link User to UC_Compare--><g class="link" data-entity-1="User" data-entity-2="UC_Compare" data-source-line="37" data-uid="lnk26" id="link_User_UC_Compare"><path d="M222.6,467.41 C234.45,417.04 262.34,331.18 321,286 C374.11,245.1 443.2175,232.5505 502.6375,229.5705" fill="none" id="User-to-UC_Compare" style="stroke:#526474;stroke-width:1;"/><polygon fill="#526474" points="508.63,229.27,499.4409,225.7258,503.6363,229.5204,499.8417,233.7158,508.63,229.27" style="stroke:#526474;stroke-width:1;"/></g><!--link User to UC_Account--><g class="link" data-entity-1="User" data-entity-2="UC_Account" data-source-line="38" data-uid="lnk27" id="link_User_UC_Account"><path d="M260.33,506.77 C325.18,506.43 439.3801,505.8409 518.9001,505.4309" fill="none" id="User-to-UC_Account" style="stroke:#526474;stroke-width:1;"/><polygon fill="#526474" points="524.9,505.4,515.8795,501.4465,519.9001,505.4258,515.9207,509.4463,524.9,505.4" style="stroke:#526474;stroke-width:1;"/></g><!--link Admin to UC_Catalog--><g class="link" data-entity-1="Admin" data-entity-2="UC_Catalog" data-source-line="39" data-uid="lnk28" id="link_Admin_UC_Catalog"><path d="M72.66,467.41 C90.59,424.33 123.68,355.17 168,307 C278.5,186.89 456.7256,113.8886 546.0156,82.6986" fill="none" id="Admin-to-UC_Catalog" style="stroke:#526474;stroke-width:1;"/><polygon fill="#526474" points="551.68,80.72,541.8644,79.9117,546.9597,82.3689,544.5025,87.4642,551.68,80.72" style="stroke:#526474;stroke-width:1;"/></g><!--link Admin to UC_Status--><g class="link" data-entity-1="Admin" data-entity-2="UC_Status" data-source-line="40" data-uid="lnk29" id="link_Admin_UC_Status"><path d="M87.85,467.43 C133.04,410.93 223.27,307.11 321,245 C387.83,202.53 470.6073,180.1307 530.6473,168.0807" fill="none" id="Admin-to-UC_Status" style="stroke:#526474;stroke-width:1;"/><polygon fill="#526474" points="536.53,166.9,526.9189,164.7492,531.6278,167.8839,528.4931,172.5928,536.53,166.9" style="stroke:#526474;stroke-width:1;"/></g><!--link Admin to UC_Manufacturers--><g class="link" data-entity-1="Admin" data-entity-2="UC_Manufacturers" data-source-line="41" data-uid="lnk30" id="link_Admin_UC_Manufacturers"><path d="M107.23,545.4 C182.14,601.76 329.99,707.28 469,773 C489.06,782.48 506.0157,788.8321 526.9657,795.4121" fill="none" id="Admin-to-UC_Manufacturers" style="stroke:#526474;stroke-width:1;"/><polygon fill="#526474" points="532.69,797.21,525.3022,790.697,527.9198,795.7118,522.905,798.3294,532.69,797.21" style="stroke:#526474;stroke-width:1;"/></g><!--link Admin to UC_Users--><g class="link" data-entity-1="Admin" data-entity-2="UC_Users" data-source-line="42" data-uid="lnk31" id="link_Admin_UC_Users"><path d="M80.31,546.78 C100.55,579.85 132.36,626.85 168,661 C283.45,771.6 324.42,789.74 469,858 C489.13,867.5 506.2017,873.8072 527.2517,880.2372" fill="none" id="Admin-to-UC_Users" style="stroke:#526474;stroke-width:1;"/><polygon fill="#526474" points="532.99,881.99,525.5512,875.5353,528.2081,880.5293,523.2141,883.1863,532.99,881.99" style="stroke:#526474;stroke-width:1;"/></g><!--link UC_Search to UC_Detail--><g class="link" data-entity-1="UC_Search" data-entity-2="UC_Detail" data-source-line="43" data-uid="lnk32" id="link_UC_Search_UC_Detail"><path d="M604.5,597.25 C604.5,612.65 604.5,628.11 604.5,643.35" fill="none" id="UC_Search-to-UC_Detail" style="stroke:#526474;stroke-width:1;stroke-dasharray:7,7;"/><polygon fill="#526474" points="604.5,649.35,608.5,640.35,604.5,644.35,600.5,640.35,604.5,649.35" style="stroke:#526474;stroke-width:1;"/><text fill="#000000" font-family="sans-serif" font-size="13" lengthAdjust="spacing" textLength="55.6563" x="565" y="628.7451">&#171;include&#187;</text></g><!--link UC_Export to UC_Search--><g class="link" data-entity-1="UC_Export" data-entity-2="UC_Search" data-source-line="44" data-uid="lnk33" id="link_UC_Export_UC_Search"><path d="M535.52,733.35 C512.26,728.49 487.53,719.71 469,704 C434.04,674.36 404.43,642.02 434,607 C456.47,580.39 487.5843,572.1665 521.4643,570.8865" fill="none" id="UC_Export-to-UC_Search" style="stroke:#526474;stroke-width:1;stroke-dasharray:7,7;"/><polygon fill="#526474" points="527.46,570.66,518.3154,567.0026,522.4636,570.8488,518.6174,574.9969,527.46,570.66" style="stroke:#526474;stroke-width:1;"/><text fill="#000000" font-family="sans-serif" font-size="13" lengthAdjust="spacing" textLength="53.4917" x="407" y="621.4951">&#171;extend&#187;</text></g><!--link UC_Compare to UC_Detail--><g class="link" data-entity-1="UC_Compare" data-entity-2="UC_Detail" data-source-line="45" data-uid="lnk34" id="link_UC_Compare_UC_Detail"><path d="M518.01,241.7 C499.63,247.58 481.9,256.76 469,271 C406.81,339.67 423.78,400.4 434,480 C441.84,541.05 428.25,567.87 469,614 C487.94,635.45 510.8262,646.7454 536.8862,654.6154" fill="none" id="UC_Compare-to-UC_Detail" style="stroke:#526474;stroke-width:1;stroke-dasharray:7,7;"/><polygon fill="#526474" points="542.63,656.35,535.1707,649.9189,537.8435,654.9045,532.8579,657.5773,542.63,656.35" style="stroke:#526474;stroke-width:1;"/><text fill="#000000" font-family="sans-serif" font-size="13" lengthAdjust="spacing" textLength="53.4917" x="407" y="476.4951">&#171;extend&#187;</text></g><!--link UC_Catalog to UC_Status--><g class="link" data-entity-1="UC_Catalog" data-entity-2="UC_Status" data-source-line="46" data-uid="lnk35" id="link_UC_Catalog_UC_Status"><path d="M604.5,84.64 C604.5,100.3 604.5,115.67 604.5,130.94" fill="none" id="UC_Catalog-to-UC_Status" style="stroke:#526474;stroke-width:1;stroke-dasharray:7,7;"/><polygon fill="#526474" points="604.5,136.94,608.5,127.94,604.5,131.94,600.5,127.94,604.5,136.94" style="stroke:#526474;stroke-width:1;"/><text fill="#000000" font-family="sans-serif" font-size="13" lengthAdjust="spacing" textLength="55.6563" x="565" y="116.2451">&#171;include&#187;</text></g><!--SRC=[ZLF1RjD04BtxAqRXN4HH8GLLba9ekC25m1ajzjQnwdYhzLeD0gJGq7AWKX5y021-8AIjC6bZVc7zHyokryQRL42aA9ktR-RDl9cDw8u0mO27mK207tBgYP35Jh8Rndk4ao4y9zvkm5aQ-rqMCGxNUlhJO11FCDuNBo8AP9ycR4WRbsb2FP9GUEa0t5j9jTvhzpRL3UC-vGQzqTritrb7jCCvspVWhPktDzeRpcl7qNBGafzaNhmf3ehZ5f047gGq4VNTPvdBY-9O_i3VcPmM1_9S_TVCfmdbDV63F9ENCfCBcUbaOqtEYx6cTlnX63kECeN40VRNUZAWVCZwD4AefPkg6cp9BoXosiXpXEUJKhBxx34DmaIWSZFYOt681PvLd8SiG3cRy7w5mb9XSLIlA2hd83Cetc8psEbL9VGfuTvWERyyBSR519sQood86MoFF1fL8TkZFSQNv30n6e-kvKe4L1ncKAQzmtDMXTwdWeIH5VfLrOJpMA1HQBWy1tG_XmrGoV28CyBlpof3bmrnX-ZVrQUegIgOo0NMCArYEvw7UsPN_at-CWLS_2bWhWS-HIZ7uUNoibOdWaGiM5AVoEz8pNIODbUPhWquH7HMMos8I9D_goi8fuVkpxG3cTdK4xMKLR9794vtS65JJld_vBnozwsCwWaawYtfLmDhQwwreXPQBgMAGEILQnwQVXabeD-JkNSREzg4pEer8RDQJSYiJ1EgTg29LREjQd2Rux90CmOBizsqhafRwdBXUgCgk0jRMs7iHQbFNTUf6p0a4w58T2Hex9SSK_vg9ejKbbvbqZNRShy1]--></g></svg>