<svg xmlns="http://www.w3.org/2000/svg" xmlns:xlink="http://www.w3.org/1999/xlink" contentStyleType="text/css" data-diagram-type="DESCRIPTION" height="895px" preserveAspectRatio="none" style="width:749px;height:895px;background:#FFFFFF;" version="1.1" viewBox="0 0 749 895" width="749px" zoomAndPan="magnify"><defs/><g><!--cluster ThermoSelect--><g class="cluster" data-entity="ThermoSelect" data-source-line="14" data-uid="ent0005" id="cluster_ThermoSelect"><rect fill="none" height="882" rx="2.5" ry="2.5" style="stroke:#181818;stroke-width:1;" width="266" x="477" y="7"/><text fill="#000000" font-family="sans-serif" font-size="14" font-weight="bold" lengthAdjust="spacing" textLength="92.5859" x="563.707" y="23.5332">ThermoSelect</text></g><g class="entity" data-entity="UC_Register" data-source-line="15" data-uid="ent0006" id="entity_UC_Register"><ellipse cx="610.2427" cy="377.0485" fill="#F1F7F8" rx="68.2427" ry="16.0485" style="stroke:#0C8791;stroke-width:0.5;"/><text fill="#000000" font-family="sans-serif" font-size="14" lengthAdjust="spacing" textLength="82.4551" x="566.0151" y="381.5651">&#1056;&#1077;&#1075;&#1080;&#1089;&#1090;&#1088;&#1072;&#1094;&#1080;&#1103;</text></g><g class="entity" data-entity="UC_Login" data-source-line="16" data-uid="ent0007" id="entity_UC_Login"><ellipse cx="609.8199" cy="309.9517" fill="#F1F7F8" rx="34.3199" ry="15.4517" style="stroke:#0C8791;stroke-width:0.5;"/><text fill="#000000" font-family="sans-serif" font-size="14" lengthAdjust="spacing" textLength="32.293" x="593.6734" y="313.6802">&#1042;&#1093;&#1086;&#1076;</text></g><g class="entity" data-entity="UC_Logout" data-source-line="17" data-uid="ent0008" id="entity_UC_Logout"><ellipse cx="609.9351" cy="443.9517" fill="#F1F7F8" rx="41.4351" ry="15.4517" style="stroke:#0C8791;stroke-width:0.5;"/><text fill="#000000" font-family="sans-serif" font-size="14" lengthAdjust="spacing" textLength="42.3555" x="588.7574" y="447.6802">&#1042;&#1099;&#1093;&#1086;&#1076;</text></g><g class="entity" data-entity="UC_Search" data-source-line="18" data-uid="ent0009" id="entity_UC_Search"><ellipse cx="610.0039" cy="589.1008" fill="#F1F7F8" rx="88.5039" ry="20.1008" style="stroke:#0C8791;stroke-width:0.5;"/><text fill="#000000" font-family="sans-serif" font-size="14" lengthAdjust="spacing" textLength="134.5996" x="542.7041" y="592.8293">&#1055;&#1086;&#1080;&#1089;&#1082; &#1080; &#1092;&#1080;&#1083;&#1100;&#1090;&#1088;&#1072;&#1094;&#1080;&#1103;</text></g><g class="entity" data-entity="UC_Detail" data-source-line="19" data-uid="ent0010" id="entity_UC_Detail"><ellipse cx="610.0397" cy="680.8079" fill="#F1F7F8" rx="84.5397" ry="19.3079" style="stroke:#0C8791;stroke-width:0.5;"/><text fill="#000000" font-family="sans-serif" font-size="14" lengthAdjust="spacing" textLength="125.2686" x="547.4054" y="684.5365">&#1055;&#1088;&#1086;&#1089;&#1084;&#1086;&#1090;&#1088; &#1082;&#1072;&#1088;&#1090;&#1086;&#1095;&#1082;&#1080;</text></g><g class="entity" data-entity="UC_Compare" data-source-line="20" data-uid="ent0011" id="entity_UC_Compare"><ellipse cx="610.1334" cy="237.2267" fill="#F1F7F8" rx="101.6334" ry="22.7267" style="stroke:#0C8791;stroke-width:0.5;"/><text fill="#000000" font-family="sans-serif" font-size="14" lengthAdjust="spacing" textLength="164.5273" x="527.8697" y="240.9552">&#1057;&#1088;&#1072;&#1074;&#1085;&#1077;&#1085;&#1080;&#1077; &#1076;&#1086; 4 &#1084;&#1086;&#1076;&#1077;&#1083;&#1077;&#1081;</text></g><g class="entity" data-entity="UC_Account" data-source-line="21" data-uid="ent0012" id="entity_UC_Account"><ellipse cx="609.8787" cy="513.7757" fill="#F1F7F8" rx="84.3787" ry="19.2757" style="stroke:#0C8791;stroke-width:0.5;"/><text fill="#000000" font-family="sans-serif" font-size="14" lengthAdjust="spacing" textLength="124.8857" x="547.4358" y="517.5043">&#1055;&#1088;&#1086;&#1089;&#1084;&#1086;&#1090;&#1088; &#1072;&#1082;&#1082;&#1072;&#1091;&#1085;&#1090;&#1072;</text></g><g class="entity" data-entity="UC_Catalog" data-source-line="22" data-uid="ent0013" id="entity_UC_Catalog"><ellipse cx="609.8606" cy="64.8721" fill="#F1F7F8" rx="94.8606" ry="21.3721" style="stroke:#0C8791;stroke-width:0.5;"/><text fill="#000000" font-family="sans-serif" font-size="14" lengthAdjust="spacing" textLength="149.249" x="535.2361" y="68.6006">&#1059;&#1087;&#1088;&#1072;&#1074;&#1083;&#1077;&#1085;&#1080;&#1077; &#1082;&#1072;&#1090;&#1072;&#1083;&#1086;&#1075;&#1086;&#1084;</text></g><g class="entity" data-entity="UC_Status" data-source-line="23" data-uid="ent0014" id="entity_UC_Status"><ellipse cx="609.8203" cy="158.8641" fill="#F1F7F8" rx="87.3203" ry="19.8641" style="stroke:#0C8791;stroke-width:0.5;"/><text fill="#000000" font-family="sans-serif" font-size="14" lengthAdjust="spacing" textLength="131.8311" x="543.9047" y="162.5926">&#1055;&#1091;&#1073;&#1083;&#1080;&#1082;&#1072;&#1094;&#1080;&#1103; &#1080; &#1072;&#1088;&#1093;&#1080;&#1074;</text></g><g class="entity" data-entity="UC_Manufacturers" data-source-line="24" data-uid="ent0015" id="entity_UC_Manufacturers"><ellipse cx="610.1626" cy="761.8325" fill="#F1F7F8" rx="117.1626" ry="25.8325" style="stroke:#0C8791;stroke-width:0.5;"/><text fill="#000000" font-family="sans-serif" font-size="14" lengthAdjust="spacing" textLength="198.666" x="510.8296" y="765.561">&#1059;&#1087;&#1088;&#1072;&#1074;&#1083;&#1077;&#1085;&#1080;&#1077; &#1087;&#1088;&#1086;&#1080;&#1079;&#1074;&#1086;&#1076;&#1080;&#1090;&#1077;&#1083;&#1103;&#1084;&#1080;</text></g><g class="entity" data-entity="UC_Users" data-source-line="25" data-uid="ent0016" id="entity_UC_Users"><ellipse cx="609.8238" cy="848.0648" fill="#F1F7F8" rx="113.3238" ry="25.0648" style="stroke:#0C8791;stroke-width:0.5;"/><text fill="#000000" font-family="sans-serif" font-size="14" lengthAdjust="spacing" textLength="190.3193" x="514.6641" y="851.7933">&#1059;&#1087;&#1088;&#1072;&#1074;&#1083;&#1077;&#1085;&#1080;&#1077; &#1087;&#1086;&#1083;&#1100;&#1079;&#1086;&#1074;&#1072;&#1090;&#1077;&#1083;&#1103;&#1084;&#1080;</text></g><!--entity Guest--><g class="entity" data-entity="Guest" data-source-line="10" data-uid="ent0002" id="entity_Guest"><ellipse cx="348.5" cy="328" fill="#F1F1F1" rx="16" ry="16" style="stroke:#181818;stroke-width:0.5;"/><path d="M348.5,348 C352.5,348 355.5,348 359.5,344 C367.5,344 375.5,352 375.5,360 L375.5,364 C375.5,368 371.5,372 367.5,372 L329.5,372 C325.5,372 321.5,368 321.5,364 L321.5,360 C321.5,352 329.5,344 337.5,344 C341.5,348 344.5,348 348.5,348" fill="#F1F1F1" style="stroke:#181818;stroke-width:0.5;"/><text fill="#000000" font-family="sans-serif" font-size="14" lengthAdjust="spacing" textLength="36.0732" x="330.4634" y="387.0332">&#1043;&#1086;&#1089;&#1090;&#1100;</text></g><!--entity User--><g class="entity" data-entity="User" data-source-line="11" data-uid="ent0003" id="entity_User"><ellipse cx="214.2007" cy="457" fill="#F1F1F1" rx="16" ry="16" style="stroke:#181818;stroke-width:0.5;"/><path d="M214.2007,477 C218.2007,477 221.2007,477 225.2007,473 C233.2007,473 241.2007,481 241.2007,489 L241.2007,493 C241.2007,497 237.2007,501 233.2007,501 L195.2007,501 C191.2007,501 187.2007,497 187.2007,493 L187.2007,489 C187.2007,481 195.2007,473 203.2007,473 C207.2007,477 210.2007,477 214.2007,477" fill="#F1F1F1" style="stroke:#181818;stroke-width:0.5;"/><text fill="#000000" font-family="sans-serif" font-size="14" lengthAdjust="spacing" textLength="92.4014" x="168" y="516.0332">&#1055;&#1086;&#1083;&#1100;&#1079;&#1086;&#1074;&#1072;&#1090;&#1077;&#1083;&#1100;</text></g><!--entity Admin--><g class="entity" data-entity="Admin" data-source-line="12" data-uid="ent0004" id="entity_Admin"><ellipse cx="56.7363" cy="457" fill="#F1F1F1" rx="16" ry="16" style="stroke:#181818;stroke-width:0.5;"/><path d="M56.7363,477 C60.7363,477 63.7363,477 67.7363,473 C75.7363,473 83.7363,481 83.7363,489 L83.7363,493 C83.7363,497 79.7363,501 75.7363,501 L37.7363,501 C33.7363,501 29.7363,497 29.7363,493 L29.7363,489 C29.7363,481 37.7363,473 45.7363,473 C49.7363,477 52.7363,477 56.7363,477" fill="#F1F1F1" style="stroke:#181818;stroke-width:0.5;"/><text fill="#000000" font-family="sans-serif" font-size="14" lengthAdjust="spacing" textLength="101.4727" x="6" y="516.0332">&#1040;&#1076;&#1084;&#1080;&#1085;&#1080;&#1089;&#1090;&#1088;&#1072;&#1090;&#1086;&#1088;</text></g><!--link Guest to UC_Register--><g class="link" data-entity-1="Guest" data-entity-2="UC_Register" data-source-line="28" data-uid="lnk17" id="link_Guest_UC_Register"><path d="M376.29,353.68 C416.31,357.69 486.8098,364.7624 541.1598,370.2024" fill="none" id="Guest-to-UC_Register" style="stroke:#526474;stroke-width:1;"/><polygon fill="#526474" points="547.13,370.8,538.5731,365.9235,542.1549,370.302,537.7764,373.8838,547.13,370.8" style="stroke:#526474;stroke-width:1;"/></g><!--link Guest to UC_Login--><g class="link" data-entity-1="Guest" data-entity-2="UC_Login" data-source-line="29" data-uid="lnk18" id="link_Guest_UC_Login"><path d="M376.13,344.36 C385.53,342.15 396.2,339.8 406,338 C465.66,327.04 529.9395,318.947 570.1995,314.307" fill="none" id="Guest-to-UC_Login" style="stroke:#526474;stroke-width:1;"/><polygon fill="#526474" points="576.16,313.62,566.7612,310.6767,571.1929,314.1925,567.6772,318.6241,576.16,313.62" style="stroke:#526474;stroke-width:1;"/></g><!--link User to Guest--><g class="link" data-entity-1="User" data-entity-2="Guest" data-source-line="30" data-uid="lnk19" id="link_User_Guest"><path d="M255.84,440.24 C276.97,419.66 289.2801,407.6736 307.9101,389.5436" fill="none" id="User-to-Guest" style="stroke:#526474;stroke-width:1;"/><polygon fill="none" points="320.81,376.99,303.7256,385.2437,312.0947,393.8436,320.81,376.99" style="stroke:#526474;stroke-width:1;"/></g><!--link Admin to User--><g class="link" data-entity-1="Admin" data-entity-2="User" data-source-line="31" data-uid="lnk20" id="link_Admin_User"><path d="M107.13,480 C126.59,480 130.78,480 149.79,480" fill="none" id="Admin-to-User" style="stroke:#526474;stroke-width:1;"/><polygon fill="none" points="167.79,480,149.79,474,149.79,486,167.79,480" style="stroke:#526474;stroke-width:1;"/></g><!--link User to UC_Logout--><g class="link" data-entity-1="User" data-entity-2="UC_Logout" data-source-line="32" data-uid="lnk21" id="link_User_UC_Logout"><path d="M260.08,470.71 C269.91,468.93 280.28,467.24 290,466 C389.67,453.3 501.8742,447.7842 562.5742,445.5142" fill="none" id="User-to-UC_Logout" style="stroke:#526474;stroke-width:1;"/><polygon fill="#526474" points="568.57,445.29,559.4268,441.6291,563.5735,445.4769,559.7258,449.6235,568.57,445.29" style="stroke:#526474;stroke-width:1;"/></g><!--link User to UC_Search--><g class="link" data-entity-1="User" data-entity-2="UC_Search" data-source-line="33" data-uid="lnk22" id="link_User_UC_Search"><path d="M260.4,492.8 C311.19,507.1 395.94,530.87 469,551 C496.44,558.56 521.1383,565.2828 546.6383,572.1828" fill="none" id="User-to-UC_Search" style="stroke:#526474;stroke-width:1;"/><polygon fill="#526474" points="552.43,573.75,544.7872,567.5381,547.6036,572.444,542.6976,575.2604,552.43,573.75" style="stroke:#526474;stroke-width:1;"/></g><!--link User to UC_Detail--><g class="link" data-entity-1="User" data-entity-2="UC_Detail" data-source-line="34" data-uid="lnk23" id="link_User_UC_Detail"><path d="M260.25,508.73 C310.21,539.81 393.59,589.76 469,626 C499.48,640.65 529.3191,652.4779 556.9291,662.6379" fill="none" id="User-to-UC_Detail" style="stroke:#526474;stroke-width:1;"/><polygon fill="#526474" points="562.56,664.71,555.4951,657.848,557.8676,662.9833,552.7323,665.3558,562.56,664.71" style="stroke:#526474;stroke-width:1;"/></g><!--link User to UC_Compare--><g class="link" data-entity-1="User" data-entity-2="UC_Compare" data-source-line="35" data-uid="lnk24" id="link_User_UC_Compare"><path d="M226.66,440.18 C241.41,397.15 271.08,329.95 321,294 C375.08,255.06 443.0664,241.463 502.4964,237.063" fill="none" id="User-to-UC_Compare" style="stroke:#526474;stroke-width:1;"/><polygon fill="#526474" points="508.48,236.62,499.2092,233.2954,503.4936,236.9892,499.7999,241.2736,508.48,236.62" style="stroke:#526474;stroke-width:1;"/></g><!--link User to UC_Account--><g class="link" data-entity-1="User" data-entity-2="UC_Account" data-source-line="36" data-uid="lnk25" id="link_User_UC_Account"><path d="M260.2,483.9 C326.09,489.59 443.5022,499.7139 524.4622,506.7039" fill="none" id="User-to-UC_Account" style="stroke:#526474;stroke-width:1;"/><polygon fill="#526474" points="530.44,507.22,521.8174,502.4607,525.4585,506.7899,521.1293,510.431,530.44,507.22" style="stroke:#526474;stroke-width:1;"/></g><!--link Admin to UC_Catalog--><g class="link" data-entity-1="Admin" data-entity-2="UC_Catalog" data-source-line="37" data-uid="lnk26" id="link_Admin_UC_Catalog"><path d="M76.48,440.27 C95.73,402.94 128.3,347.1 168,308 C285.08,192.68 462.4099,117.754 551.3399,84.994" fill="none" id="Admin-to-UC_Catalog" style="stroke:#526474;stroke-width:1;"/><polygon fill="#526474" points="556.97,82.92,547.1421,82.2776,552.2782,84.6484,549.9075,89.7845,556.97,82.92" style="stroke:#526474;stroke-width:1;"/></g><!--link Admin to UC_Status--><g class="link" data-entity-1="Admin" data-entity-2="UC_Status" data-source-line="38" data-uid="lnk27" id="link_Admin_UC_Status"><path d="M95.24,440.14 C143.64,390.9 232,307.14 321,254 C381.52,217.86 402.01,218.93 469,197 C495.33,188.38 519.0755,181.6692 544.2155,175.0892" fill="none" id="Admin-to-UC_Status" style="stroke:#526474;stroke-width:1;"/><polygon fill="#526474" points="550.02,173.57,540.3005,171.9792,545.1829,174.836,542.3261,179.7185,550.02,173.57" style="stroke:#526474;stroke-width:1;"/></g><!--link Admin to UC_Manufacturers--><g class="link" data-entity-1="Admin" data-entity-2="UC_Manufacturers" data-source-line="39" data-uid="lnk28" id="link_Admin_UC_Manufacturers"><path d="M107.24,513.62 C182.77,563.52 332.08,657.77 469,718 C489.87,727.18 507.5301,733.54 529.1301,740.25" fill="none" id="Admin-to-UC_Manufacturers" style="stroke:#526474;stroke-width:1;"/><polygon fill="#526474" points="534.86,742.03,527.4518,735.5401,530.0851,740.5467,525.0785,743.18,534.86,742.03" style="stroke:#526474;stroke-width:1;"/></g><!--link Admin to UC_Users--><g class="link" data-entity-1="Admin" data-entity-2="UC_Users" data-source-line="40" data-uid="lnk29" id="link_Admin_UC_Users"><path d="M84.26,519.55 C104.98,548.38 135.54,587.27 168,616 C286.28,720.7 325.37,739.24 469,805 C489.81,814.53 507.546,820.9362 529.246,827.4862" fill="none" id="Admin-to-UC_Users" style="stroke:#526474;stroke-width:1;"/><polygon fill="#526474" points="534.99,829.22,527.5298,822.7899,530.2033,827.7752,525.2181,830.4487,534.99,829.22" style="stroke:#526474;stroke-width:1;"/></g><!--link UC_Search to UC_Detail--><g class="link" data-entity-1="UC_Search" data-entity-2="UC_Detail" data-source-line="41" data-uid="lnk30" id="link_UC_Search_UC_Detail"><path d="M610,609.12 C610,624.68 610,640.09 610,655.49" fill="none" id="UC_Search-to-UC_Detail" style="stroke:#526474;stroke-width:1;stroke-dasharray:7.0,7.0;"/><polygon fill="#526474" points="610,661.49,614,652.49,610,656.49,606,652.49,610,661.49" style="stroke:#526474;stroke-width:1;"/><text fill="#000000" font-family="sans-serif" font-size="13" lengthAdjust="spacing" textLength="55.6563" x="570.5" y="640.7451">&#171;include&#187;</text></g><!--link UC_Compare to UC_Detail--><g class="link" data-entity-1="UC_Compare" data-entity-2="UC_Detail" data-source-line="42" data-uid="lnk31" id="link_UC_Compare_UC_Detail"><path d="M518.84,246.98 C500.11,253.04 482.12,262.45 469,277 C407.46,345.23 425.11,408.06 435,489 C442.61,551.27 427.58,578.88 469,626 C488.08,647.71 511.0551,659.189 537.6051,667.189" fill="none" id="UC_Compare-to-UC_Detail" style="stroke:#526474;stroke-width:1;stroke-dasharray:7.0,7.0;"/><polygon fill="#526474" points="543.35,668.92,535.8867,662.4935,538.5626,667.4775,533.5787,670.1534,543.35,668.92" style="stroke:#526474;stroke-width:1;"/><text fill="#000000" font-family="sans-serif" font-size="13" lengthAdjust="spacing" textLength="53.4917" x="407" y="485.4951">&#171;extend&#187;</text></g><!--link UC_Catalog to UC_Status--><g class="link" data-entity-1="UC_Catalog" data-entity-2="UC_Status" data-source-line="43" data-uid="lnk32" id="link_UC_Catalog_UC_Status"><path d="M610,86.67 C610,102.3 610,117.27 610,132.6" fill="none" id="UC_Catalog-to-UC_Status" style="stroke:#526474;stroke-width:1;stroke-dasharray:7.0,7.0;"/><polygon fill="#526474" points="610,138.6,614,129.6,610,133.6,606,129.6,610,138.6" style="stroke:#526474;stroke-width:1;"/><text fill="#000000" font-family="sans-serif" font-size="13" lengthAdjust="spacing" textLength="55.6563" x="570.5" y="118.2451">&#171;include&#187;</text></g><!--SRC=[ZLFTRjCm6BtFKtmArqCC5JhG5AaKbHkueN2DJEAbqT8OEOu60gIoCRXWqX1xW85uWL8s4Rerl8BpHdnsdCwc4r2fgdjylh_p7QTqIu1Wm9Du921AE0r5mZ8ltqwoPuIJCJmbuNRCMP55VPOo3bS6-cCnI2WO7ueNAGMoGtCsfjPbaTEGv1HUUW1tLbAj3xg33NN3U4IvGQ_rDxgtrX7jSSvs37ZZ-irEj-EzzZnT3dnv9AlwJRrR7_X0ShXNq5mixuvb9S_g0_a3VsToMk_AK_LVCn_db2-97-M9F9UbNCXI9vjeSbLFDBKNZPFCyvGe98jnFl_HYF8n6z8K8LyFrGxeoyzOvBkLvnsU3vkI_ISFQPpa0YlR4P_gVMpmfENSPp6MSmaVLYYi40v7pOf5vHna2VLR70OdlQo58IKy7Bcno48LKO9AHO2SOz14A_0UpsKRUfSAagHEw1TL0CLTuDIedZm5bBA23gXaU4J1yVkppT1dOpG4_NlrATPK7Up91VOmRMDxOOYcSQV-Ad-P1iuk6fZhxKqHgd0JbJnVLYU2f2p-e_gU_8RKKeTffPI2Me1zH6TBtGGHHVxlwWh2LQ3fPbg1qjZkK3ciJVQ0PCKMkg_WbFzFpakDx6HKVixLmz1F0DRM0iTl3jeuJ4KWyYemhqRRl07qup3tWMKu6p8-iY7Z3njg5svZxIBRWe6z6mSqcZkOAvrprMYmx0skMbt1RTZSJB8mBI8Q1Dv5Qwii-bpGB3AafYr3QlfnK_q6]--></g></svg>